<?xml version="1.0" encoding="UTF-8" standalone="no"?>
<!-- Created with Inkscape (http://www.inkscape.org/) -->

<svg
   xmlns:dc="http://purl.org/dc/elements/1.1/"
   xmlns:cc="http://creativecommons.org/ns#"
   xmlns:rdf="http://www.w3.org/1999/02/22-rdf-syntax-ns#"
   xmlns:svg="http://www.w3.org/2000/svg"
   xmlns="http://www.w3.org/2000/svg"
   xmlns:sodipodi="http://sodipodi.sourceforge.net/DTD/sodipodi-0.dtd"
   xmlns:inkscape="http://www.inkscape.org/namespaces/inkscape"
   width="465"
   height="155"
   viewBox="0 0 465 155"
   id="svg4124"
   version="1.1"
   inkscape:version="0.91 r13725"
   sodipodi:docname="Dianping logo.svg">
  <defs
     id="defs4126" />
  <sodipodi:namedview
     id="base"
     pagecolor="#ffffff"
     bordercolor="#666666"
     borderopacity="1.0"
     inkscape:pageopacity="0.0"
     inkscape:pageshadow="2"
     inkscape:zoom="0.74648437"
     inkscape:cx="375"
     inkscape:cy="144.90842"
     inkscape:document-units="px"
     inkscape:current-layer="layer1"
     showgrid="false"
     units="px"
     inkscape:window-width="1366"
     inkscape:window-height="706"
     inkscape:window-x="-8"
     inkscape:window-y="-8"
     inkscape:window-maximized="1" />
  <metadata
     id="metadata4129">
    <rdf:RDF>
      <cc:Work
         rdf:about="">
        <dc:format>image/svg+xml</dc:format>
        <dc:type
           rdf:resource="http://purl.org/dc/dcmitype/StillImage" />
        <dc:title></dc:title>
      </cc:Work>
    </rdf:RDF>
  </metadata>
  <g
     inkscape:label="Layer 1"
     inkscape:groupmode="layer"
     id="layer1"
     transform="translate(0,-897.36219)">
    <g
       transform="matrix(1.2482142,0,0,-1.2481641,-360.01831,1429.5519)"
       id="g3981">
      <g
         transform="translate(572.1699,411.2637)"
         id="g78">
        <path
           inkscape:connector-curvature="0"
           id="path80"
           style="fill:#231f20;fill-opacity:1;fill-rule:nonzero;stroke:none"
           d="M 0,0 C 0,0 5.691,0.463 6.366,1.146 7.035,1.822 10.686,0.871 10.082,-3.35 9.508,-7.588 2.193,-7.633 0.047,-8.086 -2.08,-8.539 0,0 0,0" />
      </g>
      <g
         transform="translate(439.6641,412.1973)"
         id="g82">
        <path
           inkscape:connector-curvature="0"
           id="path84"
           style="fill:#231f20;fill-opacity:1;fill-rule:nonzero;stroke:none"
           d="m 0,0 3.936,1.208 c 0,0 -1.057,-27.87 -5.73,-34.2 -4.673,-6.334 -11.236,-7.41 -11.236,-7.41 l 1.195,4.304 c 0,0 -7.299,-5.496 -5.392,-8.502 1.917,-2.982 11.482,-2.379 16.144,1.557 4.662,3.957 12.311,37.552 12.311,42.572 0,5.022 -7.527,8.01 -8.476,6.702 C 1.798,4.924 0.244,4.191 0,0" />
      </g>
      <g
         transform="translate(427.5195,393.1836)"
         id="g86">
        <path
           inkscape:connector-curvature="0"
           id="path88"
           style="fill:#231f20;fill-opacity:1;fill-rule:nonzero;stroke:none"
           d="m 0,0 c 0,0 14.743,1.512 21.878,6.134 7.12,4.649 11.59,6.999 13.672,4.069 C 37.624,7.286 37.364,6.176 36.056,6.038 34.747,5.92 19.237,-6.594 14.217,-8.262 9.218,-9.928 -4.862,-1.896 0,0" />
      </g>
      <g
         transform="translate(449.3389,381.9785)"
         id="g90">
        <path
           inkscape:connector-curvature="0"
           id="path92"
           style="fill:#231f20;fill-opacity:1;fill-rule:nonzero;stroke:none"
           d="m 0,0 c 5.146,0.594 11.38,-1.584 17.096,-4.656 7.771,-4.205 5.752,-12.319 2.999,-13.762 -2.767,-1.439 -6.1,7.147 -11.351,11.356 C 3.231,-2.637 -5.124,-0.609 0,0" />
      </g>
      <g
         transform="translate(501.6631,421.9219)"
         id="g94">
        <path
           inkscape:connector-curvature="0"
           id="path96"
           style="fill:#231f20;fill-opacity:1;fill-rule:nonzero;stroke:none"
           d="M 0,0 C 0,0 10.398,-0.777 11.782,-3.682 13.182,-6.57 10.19,-8.5 5.596,-14.127 1.013,-19.73 -14.346,-36.574 -13.961,-29.806 c 0.398,6.779 0.807,4.454 0.807,4.454 0,0 1.805,-2.13 2.984,0.79 C -8.96,-21.681 4.994,-4.645 0,0" />
      </g>
      <g
         transform="translate(507.9385,406.0762)"
         id="g98">
        <path
           inkscape:connector-curvature="0"
           id="path100"
           style="fill:#231f20;fill-opacity:1;fill-rule:nonzero;stroke:none"
           d="m 0,0 c 2.59,1.467 10.182,0.808 14.374,-3.048 2.964,-2.724 3.403,-5.298 -0.402,-6.735 -1.55,-0.598 -5.311,-0.617 -8.013,-1.129 -8.681,-1.725 -13.129,-3.222 -13.342,-2.056 -0.234,1.177 12.147,5.177 11.364,8.849 C 3.178,-0.439 -2.584,-1.467 0,0" />
      </g>
      <g
         transform="translate(497.373,390.291)"
         id="g102">
        <path
           inkscape:connector-curvature="0"
           id="path104"
           style="fill:#231f20;fill-opacity:1;fill-rule:nonzero;stroke:none"
           d="m 0,0 c 0,0 -2.786,-5.023 -6.591,-11.406 -3.776,-6.379 -9.791,-12.584 -10.576,-13.738 -0.795,-1.161 3.797,-1.551 7.784,1.349 C -5.379,-20.893 5.791,-6.76 5.791,-5.41 5.791,-4.051 -1.2,-2.694 0,0" />
      </g>
      <g
         transform="translate(494.9238,377.4863)"
         id="g106">
        <path
           inkscape:connector-curvature="0"
           id="path108"
           style="fill:#231f20;fill-opacity:1;fill-rule:nonzero;stroke:none"
           d="M 0,0 C 0,0 8.942,-0.603 9.187,-3.18 9.431,-5.764 8.698,-10.605 7.815,-10.457 6.927,-10.303 -3.55,-0.527 0,0" />
      </g>
      <g
         transform="translate(512.7998,389.7979)"
         id="g110">
        <path
           inkscape:connector-curvature="0"
           id="path112"
           style="fill:#231f20;fill-opacity:1;fill-rule:nonzero;stroke:none"
           d="m 0,0 c 0,0 3.241,3.69 6.369,1.962 3.152,-1.728 6.059,-5.688 4.12,-8.283 -1.93,-2.573 -12.744,-15.164 -17.259,-16.252 -4.52,-1.102 -4.914,-0.621 2.823,8.511 C 1.802,-7.263 4.76,0.884 0,0" />
      </g>
      <g
         transform="translate(516.4951,379.1562)"
         id="g114">
        <path
           inkscape:connector-curvature="0"
           id="path116"
           style="fill:#231f20;fill-opacity:1;fill-rule:nonzero;stroke:none"
           d="m 0,0 c 0,0 13.875,-3.043 16.133,-6.498 2.25,-3.426 1.458,-8.736 -2.501,-8.662 C 9.68,-15.092 -4.358,-0.396 0,0" />
      </g>
      <g
         transform="translate(563.5039,418.7168)"
         id="g118">
        <path
           inkscape:connector-curvature="0"
           id="path120"
           style="fill:#231f20;fill-opacity:1;fill-rule:nonzero;stroke:none"
           d="M 0,0 C 1.615,1.338 6.715,-0.601 8.686,-2.507 11.893,-5.554 7.711,-21.699 7.711,-21.699 l -8.084,2.291 c 0,0 2.023,1.1 2.449,3.056 C 2.509,-14.362 3.733,-5.26 1.61,-3.425 -0.518,-1.58 -1.643,-1.306 0,0" />
      </g>
      <g
         transform="translate(557.5371,398.8184)"
         id="g122">
        <path
           inkscape:connector-curvature="0"
           id="path124"
           style="fill:#231f20;fill-opacity:1;fill-rule:nonzero;stroke:none"
           d="m 0,0 c 0,0 5.386,-2.231 6.103,-4.586 0.698,-2.344 1.758,-19.355 1.758,-19.355 0,0 -6.454,3.06 -6.333,4.812 0.104,1.768 0.585,9.979 -0.717,12.092 C -0.48,-4.93 -3.286,0 0,0" />
      </g>
      <g
         transform="translate(561.3916,393.8887)"
         id="g126">
        <path
           inkscape:connector-curvature="0"
           id="path128"
           style="fill:#231f20;fill-opacity:1;fill-rule:nonzero;stroke:none"
           d="m 0,0 c 0,0 11.454,4.761 13.091,5.703 1.64,0.937 5.095,0.154 7.684,-2.655 2.574,-2.804 0.941,-5.516 -1.399,-10.083 -2.352,-4.584 0.548,-5.949 -0.842,-6.006 -1.821,-0.061 -15.588,-3.633 -15.588,-3.633 l -1.06,4.586 c 0,0 10.21,2.465 11.385,4.806 1.497,2.988 0.796,6.616 0.796,6.616 0,0 -3.357,-2.287 -7.582,-1.692 C 2.252,-1.795 0,0 0,0" />
      </g>
      <g
         transform="translate(548.418,375.0332)"
         id="g130">
        <path
           inkscape:connector-curvature="0"
           id="path132"
           style="fill:#231f20;fill-opacity:1;fill-rule:nonzero;stroke:none"
           d="m 0,0 c 0,0 -2.543,-1.816 -2.269,-3.813 0.276,-1.984 2.992,-8.373 4.967,-7.382 1.986,0.972 8.525,7.925 9.366,6.529 0.837,-1.377 4.142,-7.064 7.014,-4.77 2.893,2.293 5.848,7.176 7.381,6.956 1.512,-0.182 2.252,-6.629 5.635,-5.497 3.367,1.129 8.041,7.571 9.937,6.791 1.884,-0.777 0.879,-3.14 0.431,-3.509 -0.465,-0.366 -4.329,-0.92 -3.614,-1.492 0.728,-0.559 6.306,-3.491 8.043,-2.633 1.738,0.857 2.544,6.869 0.98,8.59 -1.555,1.736 -4.496,1.533 -4.496,1.533 0,0 -10.598,-3.164 -12.25,-2.969 -1.649,0.205 -3.308,0.758 -4.936,0.48 C 24.545,-1.461 18.387,-4.295 15.92,-3.291 13.417,-2.277 11.526,-1.973 9.673,-2.615 7.794,-3.221 1.602,-4.078 1.602,-4.078 1.602,-4.078 1.374,1.088 0,0" />
      </g>
      <g
         transform="translate(616.8145,420.7773)"
         id="g134">
        <path
           inkscape:connector-curvature="0"
           id="path136"
           style="fill:#231f20;fill-opacity:1;fill-rule:nonzero;stroke:none"
           d="m 0,0 c 0,0 9.696,-2.676 9.394,-5.969 -0.303,-3.295 -16.88,-9.252 -16.88,-9.252 l 9.717,8.961 c 0,0 -3.299,3.444 -2.231,6.26" />
      </g>
      <g
         transform="translate(599.832,399.6895)"
         id="g138">
        <path
           inkscape:connector-curvature="0"
           id="path140"
           style="fill:#231f20;fill-opacity:1;fill-rule:nonzero;stroke:none"
           d="m 0,0 c 0,0 3.881,-10.506 8.057,-9.506 4.188,1.012 6.578,6.502 6.578,6.502 0,0 -0.15,-17.213 -0.301,-19.791 -0.15,-2.578 1.191,-5.736 2.228,-7.313 1.057,-1.574 2.557,1.157 3.006,4.166 0.438,3.006 4.428,15.887 4.428,15.887 l -5.69,-7.189 c 0,0 0.351,10.364 0.813,13.662 0.449,3.285 3.63,7.808 -1.078,8.366 C 15.957,5.025 5.076,-1.002 2.826,-1.139 0.588,-1.285 0.588,-0.567 0,0" />
      </g>
      <g
         transform="translate(626.9434,415.5391)"
         id="g142">
        <path
           inkscape:connector-curvature="0"
           id="path144"
           style="fill:#231f20;fill-opacity:1;fill-rule:nonzero;stroke:none"
           d="m 0,0 c 0,0 1.503,-1.094 6.428,0.443 4.898,1.55 15.951,5.1 17.619,3.313 C 25.709,1.961 14.352,-5.051 8.608,-5.88 2.859,-6.687 0.367,-3.641 0,0" />
      </g>
      <g
         transform="translate(626.5107,403.2422)"
         id="g146">
        <path
           inkscape:connector-curvature="0"
           id="path148"
           style="fill:#231f20;fill-opacity:1;fill-rule:nonzero;stroke:none"
           d="m 0,0 c -0.669,-0.021 -5.068,-11.92 1.328,-11.566 6.396,0.365 12.913,15.365 16.532,14.734 1.731,-0.289 -0.527,-5.26 -3.464,-8.684 -2.932,-3.436 -7.045,-9.092 -12.46,-11.12 -4.442,-1.651 -5.061,-1.651 -5.061,-1.651 0,0 0.806,-6.016 4.591,-5.832 3.789,0.176 13.228,8.038 18.857,7.121 7.342,-1.188 11.623,-1.35 11.865,1.65 0.127,1.495 -4.253,6.239 -9.244,4.972 -4.986,-1.263 -10.066,-3.24 -10.066,-3.24 0,0 10.32,9.623 11.68,12.766 0.884,2.004 -1.397,9.584 -8.282,5.803 C 9.386,1.166 2.548,-4.082 0.996,-4.119 -0.55,-4.148 0.661,0.042 0,0" />
      </g>
      <g
         transform="translate(636.0879,410.7285)"
         id="g150">
        <path
           inkscape:connector-curvature="0"
           id="path152"
           style="fill:#231f20;fill-opacity:1;fill-rule:nonzero;stroke:none"
           d="m 0,0 c 0,0 0,-25.432 0.212,-34.779 0.225,-9.358 1.182,-21.299 2.345,-21.299 1.193,0 3.08,8.041 2.929,20.852 C 5.305,-22.412 5.742,1.531 5.742,1.531 L 0,0 Z" />
      </g>
      <g
         transform="translate(351.7217,369.9316)"
         id="g154">
        <path
           inkscape:connector-curvature="0"
           id="path156"
           style="fill:#f68712;fill-opacity:1;fill-rule:evenodd;stroke:none"
           d="M 0,0 C 18.15,9.174 28.229,29.906 23.086,50.46 L 8.32,46.791 C 12.25,31.078 2.703,15.188 -12.998,11.248 -28.703,7.336 -44.603,16.891 -48.53,32.575 l -14.765,-3.68 c 4.99,-19.995 22.784,-33.362 42.464,-33.69 -22.806,-10.568 -35.5,-36.812 -28.987,-62.941 l 17.609,4.408 c -4.842,19.379 6.414,38.889 25.146,43.56 18.73,4.688 37.827,-7.23 42.676,-26.627 l 17.623,4.415 C 46.866,-16.549 24.366,0.412 0,0" />
      </g>
      <g
         transform="translate(352.6846,411.3086)"
         id="g158">
        <path
           inkscape:connector-curvature="0"
           id="path160"
           style="fill:#f68712;fill-opacity:1;fill-rule:evenodd;stroke:none"
           d="m 0,0 c 2.652,-10.68 -3.838,-21.463 -14.483,-24.128 -10.663,-2.667 -21.462,3.812 -24.119,14.482 -2.664,10.67 3.817,21.457 14.481,24.119 C -13.463,17.132 -2.672,10.65 0,0" />
      </g>
      <g
         transform="translate(441.2119,353.5156)"
         id="g162">
        <path
           inkscape:connector-curvature="0"
           id="path164"
           style="fill:#231f20;fill-opacity:1;fill-rule:nonzero;stroke:none"
           d="m 0,0 0,-18.939 c 0,-1.94 -0.105,-3.371 -0.265,-4.338 -0.169,-0.967 -0.474,-1.856 -0.885,-2.645 -0.867,-1.846 -2.125,-3.281 -3.774,-4.336 -1.64,-1.027 -3.455,-1.539 -5.449,-1.539 -3.01,0 -5.503,1.033 -7.444,3.156 -1.964,2.108 -2.956,4.77 -2.956,8.018 0,1.447 0.242,2.834 0.74,4.148 0.455,1.325 1.162,2.491 2.067,3.528 0.945,1.068 2.04,1.902 3.336,2.494 1.292,0.609 2.634,0.894 4.054,0.894 1.033,0 2.002,-0.154 2.941,-0.373 2.153,-0.492 3.372,-1.89 4.217,-2.377 l 0,-4.121 c -0.863,0.659 -2.274,2.278 -4.105,2.733 -0.891,0.213 -1.733,0.48 -2.625,0.48 -1.995,0 -3.614,-0.703 -4.891,-2.121 -1.283,-1.414 -1.926,-3.217 -1.926,-5.463 0,-2.16 0.618,-3.939 1.866,-5.332 1.247,-1.379 2.831,-2.06 4.786,-2.06 1.944,0 3.545,0.695 4.773,2.074 1.231,1.41 1.814,3.232 1.814,5.496 L -3.726,0 0,0 Z" />
      </g>
      <g
         transform="translate(445.8545,322.127)"
         id="g166">
        <path
           inkscape:connector-curvature="0"
           id="path168"
           style="fill:#231f20;fill-opacity:1;fill-rule:nonzero;stroke:none"
           d="m 0,0 0,20.65 3.711,0.834 0,-20.709 L 0,0 Z m -0.39,27.588 c 0,0.629 0.237,1.195 0.68,1.625 0.413,0.443 0.948,0.676 1.579,0.676 0.622,0 1.178,-0.215 1.592,-0.676 0.411,-0.416 0.643,-0.973 0.643,-1.625 0,-0.684 -0.232,-1.26 -0.643,-1.705 -0.414,-0.461 -0.97,-0.684 -1.592,-0.684 -0.629,0 -1.144,0.223 -1.579,0.701 -0.443,0.453 -0.68,1.004 -0.68,1.688" />
      </g>
      <g
         transform="translate(470.5166,322.127)"
         id="g170">
        <path
           inkscape:connector-curvature="0"
           id="path172"
           style="fill:#231f20;fill-opacity:1;fill-rule:nonzero;stroke:none"
           d="m 0,0 0,10.723 c 0,2.226 -0.615,4.06 -1.84,5.457 -1.227,1.396 -2.826,2.093 -4.783,2.093 -1.946,0 -3.556,-0.687 -4.796,-2.052 -1.247,-1.393 -1.88,-3.188 -1.88,-5.358 0,-2.213 0.637,-4.033 1.924,-5.447 1.295,-1.424 2.937,-2.125 4.914,-2.125 0.91,0 1.778,0.156 2.63,0.482 0.856,0.311 3.388,1.973 4.224,2.622 l 0,-4.124 C -0.443,1.77 -2.986,0.25 -3.93,0.006 c -0.924,-0.244 -1.922,-0.373 -2.951,-0.373 -0.967,0 -1.943,0.154 -2.924,0.47 -0.97,0.327 -1.866,0.76 -2.635,1.327 -1.504,1.052 -2.635,2.404 -3.427,4.007 -0.798,1.59 -1.184,3.373 -1.184,5.329 0,3.218 0.965,5.88 2.918,7.962 1.981,2.088 4.459,3.159 7.47,3.159 1.976,0 3.804,-0.53 5.439,-1.551 1.652,-1.057 2.906,-2.479 3.785,-4.285 0.426,-0.819 0.714,-1.707 0.882,-2.684 0.174,-0.969 0.274,-2.424 0.274,-4.344 l 0,-8.09 L 0,0 Z" />
      </g>
      <g
         transform="translate(478.5908,322.127)"
         id="g174">
        <path
           inkscape:connector-curvature="0"
           id="path176"
           style="fill:#231f20;fill-opacity:1;fill-rule:nonzero;stroke:none"
           d="m 0,0 0,11.726 c 0,3.133 0.795,5.604 2.4,7.436 1.604,1.803 3.741,2.725 6.407,2.725 2.681,0 4.803,-0.922 6.402,-2.725 1.575,-1.832 2.373,-4.303 2.373,-7.436 l 0,-11.009 L 13.917,0 l 0,12.433 c 0,1.684 -0.472,3.075 -1.419,4.135 -0.955,1.088 -2.174,1.604 -3.688,1.604 -1.481,0 -2.699,-0.516 -3.667,-1.604 -0.954,-1.06 -1.44,-2.451 -1.44,-4.135 L 3.703,0.674 0,0 Z" />
      </g>
      <g
         transform="translate(500.7012,315.2344)"
         id="g178">
        <path
           inkscape:connector-curvature="0"
           id="path180"
           style="fill:#231f20;fill-opacity:1;fill-rule:nonzero;stroke:none"
           d="m 0,0 0,15.916 c 0,1.838 0.089,3.238 0.257,4.256 0.185,0.998 0.474,1.922 0.881,2.771 0.843,1.842 2.103,3.262 3.754,4.285 1.65,1.022 3.485,1.551 5.512,1.551 2.984,0 5.487,-1.07 7.443,-3.158 1.936,-2.082 2.916,-4.744 2.916,-7.963 0,-1.455 -0.25,-2.851 -0.743,-4.176 C 19.548,12.139 18.862,10.971 17.934,9.91 17.01,8.836 15.898,8.008 14.608,7.414 13.319,6.81 11.974,6.525 10.565,6.525 c -1.022,0 -2,0.129 -2.942,0.373 -0.937,0.245 -1.835,0.62 -2.663,1.11 l 0,4.131 c 0.828,-0.668 1.695,-1.162 2.588,-1.473 0.845,-0.326 1.755,-0.482 2.651,-0.482 1.958,0 3.61,0.701 4.892,2.125 1.282,1.414 1.901,3.234 1.901,5.447 0,2.164 -0.606,3.941 -1.86,5.324 -1.254,1.398 -2.858,2.086 -4.817,2.086 -1.945,0 -3.547,-0.697 -4.771,-2.094 C 4.321,21.676 3.713,19.842 3.713,17.615 L 3.713,0.822 0,0 Z" />
      </g>
      <g
         transform="translate(525.291,322.127)"
         id="g182">
        <path
           inkscape:connector-curvature="0"
           id="path184"
           style="fill:#231f20;fill-opacity:1;fill-rule:nonzero;stroke:none"
           d="m 0,0 0,20.752 3.718,0.732 0,-20.767 L 0,0 Z m -0.391,27.588 c 0,0.629 0.228,1.195 0.669,1.625 0.413,0.443 0.959,0.676 1.587,0.676 0.636,0 1.165,-0.215 1.597,-0.676 0.41,-0.416 0.629,-0.973 0.629,-1.625 0,-0.684 -0.219,-1.26 -0.629,-1.705 -0.432,-0.461 -0.961,-0.684 -1.597,-0.684 -0.612,0 -1.141,0.223 -1.585,0.701 -0.443,0.453 -0.671,1.004 -0.671,1.688" />
      </g>
      <g
         transform="translate(533.751,322.127)"
         id="g186">
        <path
           inkscape:connector-curvature="0"
           id="path188"
           style="fill:#231f20;fill-opacity:1;fill-rule:nonzero;stroke:none"
           d="m 0,0 0,11.726 c 0,3.133 0.818,5.604 2.413,7.436 1.593,1.803 3.755,2.725 6.411,2.725 2.684,0 4.811,-0.922 6.38,-2.725 1.6,-1.832 2.387,-4.303 2.387,-7.436 l 0,-11.009 L 13.922,0 l 0,12.433 c 0,1.684 -0.448,3.075 -1.402,4.135 -0.954,1.088 -2.191,1.604 -3.677,1.604 -1.491,0 -2.717,-0.516 -3.675,-1.604 -0.97,-1.06 -1.454,-2.451 -1.454,-4.135 L 3.714,0.717 0,0 Z" />
      </g>
      <g
         transform="translate(575.7646,323.3672)"
         id="g190">
        <path
           inkscape:connector-curvature="0"
           id="path192"
           style="fill:#231f20;fill-opacity:1;fill-rule:nonzero;stroke:none"
           d="m 0,0 c 0,-3.486 -0.948,-6.25 -2.841,-8.271 -1.894,-1.997 -4.474,-3.024 -7.769,-3.024 -0.99,0 -2.036,0.135 -3.102,0.32 -1.088,0.215 -2.22,0.51 -3.421,0.946 l 0.807,3.713 c 1.252,-0.42 2.338,-0.733 3.262,-0.95 0.943,-0.193 1.792,-0.304 2.567,-0.304 2.09,0 3.768,0.619 4.98,1.931 1.209,1.286 1.817,3.037 1.817,5.295 l 0,9.826 c 0,2.227 -0.615,4.061 -1.841,5.457 -1.232,1.397 -2.839,2.094 -4.79,2.094 -1.948,0 -3.545,-0.687 -4.796,-2.053 -1.251,-1.392 -1.877,-3.187 -1.877,-5.357 0,-2.213 0.645,-4.033 1.93,-5.447 1.287,-1.424 2.916,-2.125 4.903,-2.125 0.92,0 1.764,0.156 2.641,0.482 0.851,0.311 1.707,0.805 2.572,1.473 l 0,-4.131 c -0.824,-0.49 -1.73,-0.865 -2.669,-1.109 -0.938,-0.244 -1.917,-0.373 -2.95,-0.373 -0.996,0 -1.962,0.154 -2.937,0.47 -0.962,0.326 -1.848,0.76 -2.632,1.326 -1.505,1.053 -2.643,2.405 -3.432,4.008 -0.778,1.59 -1.171,3.373 -1.171,5.328 0,3.219 0.979,5.881 2.917,7.963 1.96,2.088 4.455,3.159 7.466,3.159 1.959,0 3.791,-0.53 5.425,-1.551 1.657,-1.057 2.92,-2.479 3.807,-4.285 0.399,-0.819 0.699,-1.707 0.875,-2.684 C -0.075,11.158 0,9.703 0,7.783 L 0,0 Z" />
      </g>
      <g
         transform="translate(581.2793,324.3633)"
         id="g194">
        <path
           inkscape:connector-curvature="0"
           id="path196"
           style="fill:#231f20;fill-opacity:1;fill-rule:nonzero;stroke:none"
           d="m 0,0 c 0,0.744 0.252,1.33 0.722,1.848 0.485,0.505 1.079,0.755 1.796,0.755 0.718,0 1.297,-0.25 1.765,-0.755 C 4.777,1.33 5.025,0.744 5.025,0 5.025,-0.701 4.777,-1.293 4.283,-1.807 3.815,-2.289 3.211,-2.559 2.518,-2.559 1.82,-2.559 1.234,-2.289 0.737,-1.807 0.252,-1.293 0,-0.701 0,0" />
      </g>
      <g
         transform="translate(604.9219,339.9023)"
         id="g198">
        <path
           inkscape:connector-curvature="0"
           id="path200"
           style="fill:#231f20;fill-opacity:1;fill-rule:nonzero;stroke:none"
           d="m 0,0 -1.609,0 c -2.59,0 -4.644,-0.656 -6.186,-1.926 -1.54,-1.303 -2.313,-3.015 -2.313,-5.142 0,-2.153 0.773,-3.858 2.313,-5.125 1.559,-1.297 3.629,-1.944 6.186,-1.944 l 1.609,0 0,-3.638 -1.843,0 c -3.682,0 -6.647,0.951 -8.843,2.918 -2.185,1.996 -3.275,4.584 -3.275,7.847 0,1.748 0.385,3.405 1.172,4.901 0.781,1.537 1.905,2.798 3.344,3.843 1.009,0.709 2.074,1.2 3.226,1.51 1.129,0.313 2.59,0.465 4.376,0.465 L 0,3.709 0,0 Z" />
      </g>
      <g
         transform="translate(611.375,332.916)"
         id="g202">
        <path
           inkscape:connector-curvature="0"
           id="path204"
           style="fill:#231f20;fill-opacity:1;fill-rule:nonzero;stroke:none"
           d="m 0,0 c 0,-2.072 0.631,-3.861 1.93,-5.31 1.283,-1.461 2.834,-2.188 4.674,-2.188 1.824,0 3.373,0.727 4.66,2.188 1.299,1.449 1.927,3.238 1.927,5.31 0,2.088 -0.625,3.848 -1.908,5.305 C 10.004,6.756 8.453,7.484 6.604,7.484 4.764,7.484 3.213,6.756 1.93,5.305 0.631,3.848 0,2.088 0,0 m -3.868,-0.023 c 0,1.484 0.28,2.896 0.811,4.252 0.54,1.357 1.311,2.558 2.321,3.652 1.005,1.039 2.121,1.836 3.354,2.389 1.237,0.558 2.575,0.828 3.986,0.828 1.399,0 2.74,-0.27 4.006,-0.828 1.255,-0.553 2.376,-1.35 3.361,-2.389 1.015,-1.051 1.759,-2.268 2.304,-3.643 0.514,-1.357 0.79,-2.777 0.79,-4.261 0,-1.512 -0.276,-2.953 -0.79,-4.336 -0.545,-1.369 -1.289,-2.575 -2.304,-3.625 -0.985,-1.049 -2.106,-1.854 -3.361,-2.399 -1.266,-0.555 -2.607,-0.814 -4.006,-0.814 -1.411,0 -2.749,0.259 -3.986,0.814 -1.233,0.545 -2.349,1.35 -3.354,2.399 -1.01,1.072 -1.781,2.295 -2.321,3.648 -0.531,1.361 -0.811,2.801 -0.811,4.313" />
      </g>
      <g
         transform="translate(631.9229,322.127)"
         id="g206">
        <path
           inkscape:connector-curvature="0"
           id="path208"
           style="fill:#231f20;fill-opacity:1;fill-rule:nonzero;stroke:none"
           d="m 0,0 0,12.433 c 0,2.917 0.732,5.223 2.212,6.905 1.47,1.691 3.465,2.549 5.961,2.549 1.281,0 2.455,-0.274 3.537,-0.838 1.092,-0.574 2.021,-1.373 2.81,-2.461 0.809,1.094 1.75,1.918 2.829,2.47 1.082,0.555 2.242,0.829 3.531,0.829 2.472,0 4.433,-0.858 5.924,-2.549 1.502,-1.682 2.232,-3.988 2.232,-6.905 l 0,-11.599 L 25.388,0 l 0,13.154 c 0,1.506 -0.416,2.719 -1.266,3.641 -0.82,0.918 -1.91,1.377 -3.242,1.377 -1.352,0 -2.424,-0.459 -3.266,-1.377 -0.822,-0.922 -1.23,-2.135 -1.23,-3.641 l 0,-12.32 L 12.71,0 l 0,13.154 c 0,1.506 -0.432,2.719 -1.254,3.641 -0.846,0.918 -1.943,1.377 -3.283,1.377 -1.35,0 -2.416,-0.459 -3.236,-1.377 C 4.106,15.873 3.706,14.66 3.706,13.154 l 0,-12.32 L 0,0 Z" />
      </g>
    </g>
  </g>
</svg>
